<svg viewBox="0 0 809.25 400" xmlns="http://www.w3.org/2000/svg"><g><g><g><g><g><line x1="41.171875" y1="377" x2="36.171875" y2="377" style="visibility: inherit;" fill="rgb(0, 0, 0)" stroke="rgb(204, 204, 204)" stroke-width="1px"></line><line x1="41.171875" y1="348" x2="36.171875" y2="348" style="visibility: inherit;" fill="rgb(0, 0, 0)" stroke="rgb(204, 204, 204)" stroke-width="1px"></line><line x1="41.171875" y1="319" x2="36.171875" y2="319" style="visibility: inherit;" fill="rgb(0, 0, 0)" stroke="rgb(204, 204, 204)" stroke-width="1px"></line><line x1="41.171875" y1="290" x2="36.171875" y2="290" style="visibility: inherit;" fill="rgb(0, 0, 0)" stroke="rgb(204, 204, 204)" stroke-width="1px"></line><line x1="41.171875" y1="261" x2="36.171875" y2="261" style="visibility: inherit;" fill="rgb(0, 0, 0)" stroke="rgb(204, 204, 204)" stroke-width="1px"></line><line x1="41.171875" y1="232" x2="36.171875" y2="232" style="visibility: inherit;" fill="rgb(0, 0, 0)" stroke="rgb(204, 204, 204)" stroke-width="1px"></line><line x1="41.171875" y1="203" x2="36.171875" y2="203" style="visibility: inherit;" fill="rgb(0, 0, 0)" stroke="rgb(204, 204, 204)" stroke-width="1px"></line><line x1="41.171875" y1="174" x2="36.171875" y2="174" style="visibility: inherit;" fill="rgb(0, 0, 0)" stroke="rgb(204, 204, 204)" stroke-width="1px"></line><line x1="41.171875" y1="145" x2="36.171875" y2="145" style="visibility: inherit;" fill="rgb(0, 0, 0)" stroke="rgb(204, 204, 204)" stroke-width="1px"></line><line x1="41.171875" y1="115.99999999999997" x2="36.171875" y2="115.99999999999997" style="visibility: inherit;" fill="rgb(0, 0, 0)" stroke="rgb(204, 204, 204)" stroke-width="1px"></line><line x1="41.171875" y1="87.00000000000003" x2="36.171875" y2="87.00000000000003" style="visibility: inherit;" fill="rgb(0, 0, 0)" stroke="rgb(204, 204, 204)" stroke-width="1px"></line><line x1="41.171875" y1="58" x2="36.171875" y2="58" style="visibility: inherit;" fill="rgb(0, 0, 0)" stroke="rgb(204, 204, 204)" stroke-width="1px"></line><line x1="41.171875" y1="29.00000000000002" x2="36.171875" y2="29.00000000000002" style="visibility: inherit;" fill="rgb(0, 0, 0)" stroke="rgb(204, 204, 204)" stroke-width="1px"></line><line x1="41.171875" y1="0" x2="36.171875" y2="0" style="visibility: inherit;" fill="rgb(0, 0, 0)" stroke="rgb(204, 204, 204)" stroke-width="1px"></line></g><g transform="translate(31.171875, 0)"><text x="0" y="377" dx="0em" dy="0.3em" style="text-anchor: end; visibility: hidden; font-family: Roboto, sans-serif; font-size: 12px; font-weight: 200;" fill="rgb(33, 33, 33)" stroke="none" stroke-width="1px">0.4</text><text x="0" y="348" dx="0em" dy="0.3em" style="text-anchor: end; visibility: inherit; font-family: Roboto, sans-serif; font-size: 12px; font-weight: 200;" fill="rgb(33, 33, 33)" stroke="none" stroke-width="1px">0.6</text><text x="0" y="319" dx="0em" dy="0.3em" style="text-anchor: end; visibility: inherit; font-family: Roboto, sans-serif; font-size: 12px; font-weight: 200;" fill="rgb(33, 33, 33)" stroke="none" stroke-width="1px">0.8</text><text x="0" y="290" dx="0em" dy="0.3em" style="text-anchor: end; visibility: inherit; font-family: Roboto, sans-serif; font-size: 12px; font-weight: 200;" fill="rgb(33, 33, 33)" stroke="none" stroke-width="1px">1</text><text x="0" y="261" dx="0em" dy="0.3em" style="text-anchor: end; visibility: inherit; font-family: Roboto, sans-serif; font-size: 12px; font-weight: 200;" fill="rgb(33, 33, 33)" stroke="none" stroke-width="1px">1.2</text><text x="0" y="232" dx="0em" dy="0.3em" style="text-anchor: end; visibility: inherit; font-family: Roboto, sans-serif; font-size: 12px; font-weight: 200;" fill="rgb(33, 33, 33)" stroke="none" stroke-width="1px">1.4</text><text x="0" y="203" dx="0em" dy="0.3em" style="text-anchor: end; visibility: inherit; font-family: Roboto, sans-serif; font-size: 12px; font-weight: 200;" fill="rgb(33, 33, 33)" stroke="none" stroke-width="1px">1.6</text><text x="0" y="174" dx="0em" dy="0.3em" style="text-anchor: end; visibility: inherit; font-family: Roboto, sans-serif; font-size: 12px; font-weight: 200;" fill="rgb(33, 33, 33)" stroke="none" stroke-width="1px">1.8</text><text x="0" y="145" dx="0em" dy="0.3em" style="text-anchor: end; visibility: inherit; font-family: Roboto, sans-serif; font-size: 12px; font-weight: 200;" fill="rgb(33, 33, 33)" stroke="none" stroke-width="1px">2</text><text x="0" y="115.99999999999997" dx="0em" dy="0.3em" style="text-anchor: end; visibility: inherit; font-family: Roboto, sans-serif; font-size: 12px; font-weight: 200;" fill="rgb(33, 33, 33)" stroke="none" stroke-width="1px">2.2</text><text x="0" y="87.00000000000003" dx="0em" dy="0.3em" style="text-anchor: end; visibility: inherit; font-family: Roboto, sans-serif; font-size: 12px; font-weight: 200;" fill="rgb(33, 33, 33)" stroke="none" stroke-width="1px">2.4</text><text x="0" y="58" dx="0em" dy="0.3em" style="text-anchor: end; visibility: inherit; font-family: Roboto, sans-serif; font-size: 12px; font-weight: 200;" fill="rgb(33, 33, 33)" stroke="none" stroke-width="1px">2.6</text><text x="0" y="29.00000000000002" dx="0em" dy="0.3em" style="text-anchor: end; visibility: inherit; font-family: Roboto, sans-serif; font-size: 12px; font-weight: 200;" fill="rgb(33, 33, 33)" stroke="none" stroke-width="1px">2.8</text><text x="0" y="0" dx="0em" dy="0.3em" style="text-anchor: end; visibility: hidden; font-family: Roboto, sans-serif; font-size: 12px; font-weight: 200;" fill="rgb(33, 33, 33)" stroke="none" stroke-width="1px">3</text></g><line x1="41.171875" y1="0" x2="41.171875" y2="377" fill="rgb(0, 0, 0)" stroke="rgb(204, 204, 204)" stroke-width="1px"></line></g></g><g transform="translate(41, 0)" clip-path="url(#clip_0)"><clipPath id="clip_0"><rect width="768" height="377"></rect></clipPath><g><g><g><line x1="0" y1="0" x2="0" y2="377" fill="rgb(0, 0, 0)" stroke="rgb(66, 66, 66)" stroke-width="1px" opacity="0.25"></line><line x1="64.00651041666666" y1="0" x2="64.00651041666666" y2="377" fill="rgb(0, 0, 0)" stroke="rgb(66, 66, 66)" stroke-width="1px" opacity="0.25"></line><line x1="128.01302083333331" y1="0" x2="128.01302083333331" y2="377" fill="rgb(0, 0, 0)" stroke="rgb(66, 66, 66)" stroke-width="1px" opacity="0.25"></line><line x1="192.01953125" y1="0" x2="192.01953125" y2="377" fill="rgb(0, 0, 0)" stroke="rgb(66, 66, 66)" stroke-width="1px" opacity="0.25"></line><line x1="256.02604166666663" y1="0" x2="256.02604166666663" y2="377" fill="rgb(0, 0, 0)" stroke="rgb(66, 66, 66)" stroke-width="1px" opacity="0.25"></line><line x1="320.03255208333337" y1="0" x2="320.03255208333337" y2="377" fill="rgb(0, 0, 0)" stroke="rgb(66, 66, 66)" stroke-width="1px" opacity="0.25"></line><line x1="384.0390625" y1="0" x2="384.0390625" y2="377" fill="rgb(0, 0, 0)" stroke="rgb(66, 66, 66)" stroke-width="1px" opacity="0.25"></line><line x1="448.0455729166667" y1="0" x2="448.0455729166667" y2="377" fill="rgb(0, 0, 0)" stroke="rgb(66, 66, 66)" stroke-width="1px" opacity="0.25"></line><line x1="512.0520833333333" y1="0" x2="512.0520833333333" y2="377" fill="rgb(0, 0, 0)" stroke="rgb(66, 66, 66)" stroke-width="1px" opacity="0.25"></line><line x1="576.05859375" y1="0" x2="576.05859375" y2="377" fill="rgb(0, 0, 0)" stroke="rgb(66, 66, 66)" stroke-width="1px" opacity="0.25"></line><line x1="640.0651041666667" y1="0" x2="640.0651041666667" y2="377" fill="rgb(0, 0, 0)" stroke="rgb(66, 66, 66)" stroke-width="1px" opacity="0.25"></line><line x1="704.0716145833333" y1="0" x2="704.0716145833333" y2="377" fill="rgb(0, 0, 0)" stroke="rgb(66, 66, 66)" stroke-width="1px" opacity="0.25"></line><line x1="768.078125" y1="0" x2="768.078125" y2="377" fill="rgb(0, 0, 0)" stroke="rgb(66, 66, 66)" stroke-width="1px" opacity="0.25"></line></g><g><line x1="0" y1="377" x2="768.078125" y2="377" fill="rgb(0, 0, 0)" stroke="rgb(66, 66, 66)" stroke-width="1px" opacity="0.25"></line><line x1="0" y1="348" x2="768.078125" y2="348" fill="rgb(0, 0, 0)" stroke="rgb(66, 66, 66)" stroke-width="1px" opacity="0.25"></line><line x1="0" y1="319" x2="768.078125" y2="319" fill="rgb(0, 0, 0)" stroke="rgb(66, 66, 66)" stroke-width="1px" opacity="0.25"></line><line x1="0" y1="290" x2="768.078125" y2="290" fill="rgb(0, 0, 0)" stroke="rgb(66, 66, 66)" stroke-width="1px" opacity="0.25"></line><line x1="0" y1="261" x2="768.078125" y2="261" fill="rgb(0, 0, 0)" stroke="rgb(66, 66, 66)" stroke-width="1px" opacity="0.25"></line><line x1="0" y1="232" x2="768.078125" y2="232" fill="rgb(0, 0, 0)" stroke="rgb(66, 66, 66)" stroke-width="1px" opacity="0.25"></line><line x1="0" y1="203" x2="768.078125" y2="203" fill="rgb(0, 0, 0)" stroke="rgb(66, 66, 66)" stroke-width="1px" opacity="0.25"></line><line x1="0" y1="174" x2="768.078125" y2="174" fill="rgb(0, 0, 0)" stroke="rgb(66, 66, 66)" stroke-width="1px" opacity="0.25"></line><line x1="0" y1="145" x2="768.078125" y2="145" fill="rgb(0, 0, 0)" stroke="rgb(66, 66, 66)" stroke-width="1px" opacity="0.25"></line><line x1="0" y1="115.99999999999997" x2="768.078125" y2="115.99999999999997" fill="rgb(0, 0, 0)" stroke="rgb(66, 66, 66)" stroke-width="1px" opacity="0.25"></line><line x1="0" y1="87.00000000000003" x2="768.078125" y2="87.00000000000003" fill="rgb(0, 0, 0)" stroke="rgb(66, 66, 66)" stroke-width="1px" opacity="0.25"></line><line x1="0" y1="58" x2="768.078125" y2="58" fill="rgb(0, 0, 0)" stroke="rgb(66, 66, 66)" stroke-width="1px" opacity="0.25"></line><line x1="0" y1="29.00000000000002" x2="768.078125" y2="29.00000000000002" fill="rgb(0, 0, 0)" stroke="rgb(66, 66, 66)" stroke-width="1px" opacity="0.25"></line><line x1="0" y1="0" x2="768.078125" y2="0" fill="rgb(0, 0, 0)" stroke="rgb(66, 66, 66)" stroke-width="1px" opacity="0.25"></line></g></g></g><g><g><line x1="0" y1="434.99999999999994" x2="768.078125" y2="434.99999999999994" fill="rgb(0, 0, 0)" stroke="rgb(153, 153, 153)" stroke-width="1.5px"></line></g></g><g><g><line x1="64.00651041666666" y1="0" x2="64.00651041666666" y2="377" fill="rgb(0, 0, 0)" stroke="rgb(153, 153, 153)" stroke-width="1.5px"></line></g></g><g><g><g><g><g><path stroke="rgb(204, 51, 17)" stroke-width="2px" d="M70.40716145833333,285.43250262737274L76.80781250000001,246.00791037082675L83.20846354166667,276.23180698375313L89.60911458333334,283.5753028281033L96.009765625,283.0047768728755L102.41041666666666,293.80743648640805L108.81106770833333,301.9758252233943L115.21171874999999,301.8742474341752L121.61236979166667,311.52753018104266L128.01302083333331,289.888796093151" style="fill: none;" fill="none"></path></g><g><path stroke="rgb(0, 119, 187)" stroke-width="2px" d="M70.40716145833333,-11.92768454551698L76.80781250000001,21.375172436237353L83.20846354166667,33.37133993907851L89.60911458333334,48.93571132246182L96.009765625,54.531214745982865L102.41041666666666,54.855043694584985L108.81106770833333,77.12458615005531L115.21171874999999,86.8065245765581L121.61236979166667,123.61213237519578L128.01302083333331,143.84321100141506L134.41367187499998,166.84698348851236L140.81432291666667,176.11067496492754L147.21497395833333,203.38853158689238L153.61562500000002,209.9610511580137L160.01627604166669,239.99613432409092L166.41692708333335,246.20587073233872L172.817578125,264.71497624014296L179.21822916666667,283.2785727547246L185.61888020833334,289.6696741473471L192.01953125,298.1187333916571L198.4201822916667,277.82633649240285L204.82083333333333,281.1066440978986L211.22148437500002,273.17470629806894L217.62213541666665,274.0015843936062L224.02278645833334,277.89477998771196L230.42343749999998,284.26981949342417L236.82408854166667,282.31048945838404L243.22473958333333,295.78280205892594L249.62539062500002,297.33654183992275L256.02604166666663,304.1436059196166L262.42669270833335,309.11176431033175L268.82734374999995,307.81573826401285L275.2279947916667,306.10548138992317L281.62864583333334,302.5110876744899L288.029296875,289.4498691808521L294.42994791666666,302.43688238255424L300.8305989583333,312.56938793130314L307.23125000000005,317.1901911541594L313.63190104166665,317.01569426287716L320.03255208333337,318.14233510781634L326.433203125,317.4135602056458L332.8338541666667,319.7945155238329L339.2345052083333,325.13402983910345L345.63515625,330.6066994996403L352.03580729166663,329.9567405659199L358.43645833333335,305.15688563896964L364.83710937499995,312.8209923837296L371.2377604166667,320.7944757423827L377.63841145833334,321.4918845106475L384.0390625,305.08859307808206L390.43971354166666,294.71533579369833L396.8403645833334,310.99654020517113L403.24101562500005,311.90982402354064L409.64166666666665,318.6620550214694L416.0423177083333,320.54535131808916L422.44296875000003,315.3695722887305L428.8436197916667,323.86120369848135L435.2442708333333,324.8770411659273L441.64492187499997,312.9672439008341L448.0455729166667,315.36410779412915L454.44622395833335,319.59724599514215L460.84687499999995,318.4935679101575L467.2475260416666,322.65812135121996L473.64817708333334,321.44253311384784L480.048828125,325.3868199457471L486.44947916666666,306.86817104040045L492.8501302083334,316.3968614007143L499.25078125000005,318.0279751578038L505.65143229166665,310.7834057783523L512.0520833333333,318.01578276010986L518.4527343750001,326.37808998020074L524.8533854166667,325.81297445053804L531.2540364583333,320.3374259934124L537.6546874999999,326.09429700763803L544.0553385416667,331.6543971514212L550.4559895833333,333.0068599590961L556.856640625,330.08893760498194L563.2572916666667,335.4472429302682L569.6579427083334,336.2627641408056L576.05859375,336.7613590984589L582.4592447916666,332.236075474563L588.8598958333333,321.28896622284816L595.260546875,315.88940100922923L601.6611979166667,325.49898038539135L608.0618489583333,326.70534783740544L614.4625000000001,330.75488981091803L620.8631510416667,333.46881375601185L627.2638020833333,336.52860919171746L633.6644531249999,339.0628041001211L640.0651041666667,335.61156089139286L646.4657552083333,336.623514861061L652.86640625,319.76514742982016L659.2670572916667,326.4602686537005L665.6677083333334,327.9183805926262L672.068359375,327.30728870294206L678.4690104166666,323.755272541414L684.8696614583333,321.28476185439246L691.2703125,313.3772154023541L697.6709635416667,322.21802993835763L704.0716145833333,322.6789362682209" style="fill: none;" fill="none"></path></g><g><path stroke="rgb(255, 112, 67)" stroke-width="2px" d="M70.40716145833333,-17.861087322235115L76.80781250000001,13.854024112224524L83.20846354166667,15.754182022445088L89.60911458333334,34.20973487198359L96.009765625,41.46040694900559" style="fill: none;" fill="none"></path></g></g></g></g><g opacity="0.2"><g><g><g><path stroke="rgb(204, 51, 17)" stroke-width="2px" d="M70.40716145833333,285.43250262737274L76.80781250000001,222.3531550168991L83.20846354166667,305.2467477321625L89.60911458333334,292.2112539410591L96.009765625,282.25989818573004L102.41041666666666,308.75140368938446L108.81106770833333,313.65675181150436L115.21171874999999,301.72614604234695L121.61236979166667,325.7642471790314L128.01302083333331,257.75779783725744" style="fill: none;" fill="none"></path></g><g><path stroke="rgb(0, 119, 187)" stroke-width="2px" d="M70.40716145833333,-11.92768454551698L76.80781250000001,41.35688662528992L83.20846354166667,44.88766074180603L89.60911458333334,67.23941206932066L96.009765625,61.836704015731826L102.41041666666666,55.303015708923326L108.81106770833333,108.97038817405699L115.21171874999999,100.92288374900818L121.61236979166667,177.8932547569275L128.01302083333331,173.88400495052338L134.41367187499998,201.1439996957779L140.81432291666667,189.95579957962036L147.21497395833333,244.2162495851517L153.61562500000002,219.80695426464084L160.01627604166669,285.0134539604187L166.41692708333335,255.51609575748446L172.817578125,292.4708020687103L179.21822916666667,311.11925423145294L185.61888020833334,299.2553526163101L192.01953125,310.7915499806404L198.4201822916667,247.38885402679446L204.82083333333333,286.02699756622314L211.22148437500002,261.27695620059967L217.62213541666665,275.2418917417526L224.02278645833334,283.73454570770264L230.42343749999998,293.832351565361L236.82408854166667,279.37149941921234L243.22473958333333,315.99125027656555L249.62539062500002,299.667150080204L256.02604166666663,314.3541982769966L262.42669270833335,316.564000248909L268.82734374999995,305.8716994524002L275.2279947916667,303.540096282959L281.62864583333334,297.119497358799L288.029296875,269.85804200172424L294.42994791666666,321.91740185022354L300.8305989583333,327.76814609766006L307.23125000000005,324.121395945549L313.63190104166665,316.75394892692566L320.03255208333337,319.83229637145996L326.433203125,316.3203978538513L332.8338541666667,323.36594849824905L339.2345052083333,333.14330130815506L345.63515625,338.81570398807526L352.03580729166663,328.98180216550827L358.43645833333335,267.9571032524109L364.83710937499995,324.3171525001526L371.2377604166667,332.75470077991486L377.63841145833334,322.5379976630211L384.0390625,280.48365592956543L390.43971354166666,279.15544986724854L396.8403645833334,335.4183468222618L403.24101562500005,313.279749751091L409.64166666666665,328.7904015183449L416.0423177083333,323.37029576301575L422.44296875000003,307.60590374469757L428.8436197916667,336.5986508131027L435.2442708333333,326.40079736709595L441.64492187499997,295.1025480031967L448.0455729166667,318.95940363407135L454.44622395833335,325.9469532966614L460.84687499999995,316.8380507826805L467.2475260416666,328.90495151281357L473.64817708333334,319.6191507577896L480.048828125,331.3032501935959L486.44947916666666,279.0901976823807L492.8501302083334,330.689896941185L499.25078125000005,320.47464579343796L505.65143229166665,299.9165517091751L512.0520833333333,328.8643482327461L518.4527343750001,338.92155081033707L524.8533854166667,324.965301156044L531.2540364583333,312.124103307724L537.6546874999999,334.72960352897644L544.0553385416667,339.99454736709595L550.4559895833333,335.0355541706085L556.856640625,325.7120540738106L563.2572916666667,343.48470091819763L569.6579427083334,337.48604595661163L576.05859375,337.5092515349388L582.4592447916666,325.4481500387192L588.8598958333333,304.8683023452759L595.260546875,307.7900531888008L601.6611979166667,339.91334944963455L608.0618489583333,328.51489901542664L614.4625000000001,336.82920277118683L620.8631510416667,337.53969967365265L627.2638020833333,341.1183023452759L633.6644531249999,342.8640964627266L640.0651041666667,330.4346960783005L646.4657552083333,338.1414458155632L652.86640625,294.477596282959L659.2670572916667,336.502950489521L665.6677083333334,330.1055485010147L672.068359375,326.39065086841583L678.4690104166666,318.42724829912186L684.8696614583333,317.57899582386017L691.2703125,301.51589572429657L697.6709635416667,335.479251742363L704.0716145833333,323.37029576301575" style="fill: none;" fill="none"></path></g><g><path stroke="rgb(255, 112, 67)" stroke-width="2px" d="M70.40716145833333,-17.861087322235115L76.80781250000001,32.88309097290039L83.20846354166667,17.578333616256696L89.60911458333334,55.91346502304076L96.009765625,50.92688441276548" style="fill: none;" fill="none"></path></g></g></g></g></g></g><g transform="translate(41, 377)" clip-path="url(#clip_1)"><clipPath id="clip_1"><rect width="768" height="23"></rect></clipPath><g><g><line x1="0" y1="0" x2="0" y2="5" style="visibility: inherit;" fill="rgb(0, 0, 0)" stroke="rgb(204, 204, 204)" stroke-width="1px"></line><line x1="64.00651041666666" y1="0" x2="64.00651041666666" y2="5" style="visibility: inherit;" fill="rgb(0, 0, 0)" stroke="rgb(204, 204, 204)" stroke-width="1px"></line><line x1="128.01302083333331" y1="0" x2="128.01302083333331" y2="5" style="visibility: inherit;" fill="rgb(0, 0, 0)" stroke="rgb(204, 204, 204)" stroke-width="1px"></line><line x1="192.01953125" y1="0" x2="192.01953125" y2="5" style="visibility: inherit;" fill="rgb(0, 0, 0)" stroke="rgb(204, 204, 204)" stroke-width="1px"></line><line x1="256.02604166666663" y1="0" x2="256.02604166666663" y2="5" style="visibility: inherit;" fill="rgb(0, 0, 0)" stroke="rgb(204, 204, 204)" stroke-width="1px"></line><line x1="320.03255208333337" y1="0" x2="320.03255208333337" y2="5" style="visibility: inherit;" fill="rgb(0, 0, 0)" stroke="rgb(204, 204, 204)" stroke-width="1px"></line><line x1="384.0390625" y1="0" x2="384.0390625" y2="5" style="visibility: inherit;" fill="rgb(0, 0, 0)" stroke="rgb(204, 204, 204)" stroke-width="1px"></line><line x1="448.0455729166667" y1="0" x2="448.0455729166667" y2="5" style="visibility: inherit;" fill="rgb(0, 0, 0)" stroke="rgb(204, 204, 204)" stroke-width="1px"></line><line x1="512.0520833333333" y1="0" x2="512.0520833333333" y2="5" style="visibility: inherit;" fill="rgb(0, 0, 0)" stroke="rgb(204, 204, 204)" stroke-width="1px"></line><line x1="576.05859375" y1="0" x2="576.05859375" y2="5" style="visibility: inherit;" fill="rgb(0, 0, 0)" stroke="rgb(204, 204, 204)" stroke-width="1px"></line><line x1="640.0651041666667" y1="0" x2="640.0651041666667" y2="5" style="visibility: inherit;" fill="rgb(0, 0, 0)" stroke="rgb(204, 204, 204)" stroke-width="1px"></line><line x1="704.0716145833333" y1="0" x2="704.0716145833333" y2="5" style="visibility: inherit;" fill="rgb(0, 0, 0)" stroke="rgb(204, 204, 204)" stroke-width="1px"></line><line x1="768.078125" y1="0" x2="768.078125" y2="5" style="visibility: inherit;" fill="rgb(0, 0, 0)" stroke="rgb(204, 204, 204)" stroke-width="1px"></line></g><g transform="translate(0, 8)"><text x="0" y="0" dx="0em" dy="0.95em" style="text-anchor: middle; visibility: hidden; font-family: Roboto, sans-serif; font-size: 12px; font-weight: 200;" fill="rgb(33, 33, 33)" stroke="none" stroke-width="1px">-10</text><text x="64.00651041666666" y="0" dx="0em" dy="0.95em" style="text-anchor: middle; visibility: inherit; font-family: Roboto, sans-serif; font-size: 12px; font-weight: 200;" fill="rgb(33, 33, 33)" stroke="none" stroke-width="1px">0</text><text x="128.01302083333331" y="0" dx="0em" dy="0.95em" style="text-anchor: middle; visibility: inherit; font-family: Roboto, sans-serif; font-size: 12px; font-weight: 200;" fill="rgb(33, 33, 33)" stroke="none" stroke-width="1px">10</text><text x="192.01953125" y="0" dx="0em" dy="0.95em" style="text-anchor: middle; visibility: inherit; font-family: Roboto, sans-serif; font-size: 12px; font-weight: 200;" fill="rgb(33, 33, 33)" stroke="none" stroke-width="1px">20</text><text x="256.02604166666663" y="0" dx="0em" dy="0.95em" style="text-anchor: middle; visibility: inherit; font-family: Roboto, sans-serif; font-size: 12px; font-weight: 200;" fill="rgb(33, 33, 33)" stroke="none" stroke-width="1px">30</text><text x="320.03255208333337" y="0" dx="0em" dy="0.95em" style="text-anchor: middle; visibility: inherit; font-family: Roboto, sans-serif; font-size: 12px; font-weight: 200;" fill="rgb(33, 33, 33)" stroke="none" stroke-width="1px">40</text><text x="384.0390625" y="0" dx="0em" dy="0.95em" style="text-anchor: middle; visibility: inherit; font-family: Roboto, sans-serif; font-size: 12px; font-weight: 200;" fill="rgb(33, 33, 33)" stroke="none" stroke-width="1px">50</text><text x="448.0455729166667" y="0" dx="0em" dy="0.95em" style="text-anchor: middle; visibility: inherit; font-family: Roboto, sans-serif; font-size: 12px; font-weight: 200;" fill="rgb(33, 33, 33)" stroke="none" stroke-width="1px">60</text><text x="512.0520833333333" y="0" dx="0em" dy="0.95em" style="text-anchor: middle; visibility: inherit; font-family: Roboto, sans-serif; font-size: 12px; font-weight: 200;" fill="rgb(33, 33, 33)" stroke="none" stroke-width="1px">70</text><text x="576.05859375" y="0" dx="0em" dy="0.95em" style="text-anchor: middle; visibility: inherit; font-family: Roboto, sans-serif; font-size: 12px; font-weight: 200;" fill="rgb(33, 33, 33)" stroke="none" stroke-width="1px">80</text><text x="640.0651041666667" y="0" dx="0em" dy="0.95em" style="text-anchor: middle; visibility: inherit; font-family: Roboto, sans-serif; font-size: 12px; font-weight: 200;" fill="rgb(33, 33, 33)" stroke="none" stroke-width="1px">90</text><text x="704.0716145833333" y="0" dx="0em" dy="0.95em" style="text-anchor: middle; visibility: inherit; font-family: Roboto, sans-serif; font-size: 12px; font-weight: 200;" fill="rgb(33, 33, 33)" stroke="none" stroke-width="1px">100</text><text x="768.078125" y="0" dx="0em" dy="0.95em" style="text-anchor: middle; visibility: hidden; font-family: Roboto, sans-serif; font-size: 12px; font-weight: 200;" fill="rgb(33, 33, 33)" stroke="none" stroke-width="1px">110</text></g><line x1="0" y1="0" x2="768.078125" y2="0" fill="rgb(0, 0, 0)" stroke="rgb(204, 204, 204)" stroke-width="1px"></line></g></g></g></g></svg>